<svg width="70" height="81" viewBox="0 0 70 81" fill="none" xmlns="http://www.w3.org/2000/svg">
<path d="M0 0.151331C23.317 0.149248 46.6319 0.147165 69.9488 0.151331C68.6655 14.9117 67.4026 29.6721 66.0661 44.4284C65.2719 53.8596 64.4532 63.2909 63.5895 72.7159C58.6137 74.0575 53.6871 75.5867 48.7134 76.9346C44.145 78.2992 39.5398 79.5346 34.9693 80.8888H34.8342C30.4848 79.5721 26.0924 78.4138 21.743 77.0971C16.6096 75.6888 11.5213 74.1179 6.38596 72.7159C5.71667 65.6513 5.11287 58.5825 4.51725 51.5138C3.39357 38.4534 2.17164 25.4013 1.09094 12.3388C0.716374 8.40758 0.448246 4.46383 0 0.540915V0.151331ZM35.0839 5.97425C35.0348 8.80966 35.1208 11.6472 35.0348 14.4805C27.036 14.4513 19.0351 14.4742 11.0363 14.4826C11.1734 17.2347 11.5357 19.968 11.9082 22.6971C19.3503 22.9784 26.8026 22.6867 34.2447 22.9138C27.7339 25.8867 21.1433 28.6867 14.6038 31.5971C14.043 31.8513 13.4433 32.043 12.9418 32.4138C12.9971 35.4367 13.476 38.443 13.6868 41.4596C17.6535 41.4451 21.6181 41.3805 25.5848 41.3742C28.7634 41.3576 31.9442 41.4221 35.1228 41.3513C34.9713 46.3221 35.1699 51.2992 35.0205 56.27C32.8816 55.9471 30.7693 55.4617 28.6386 55.0763C26.9582 54.7034 25.2368 54.5096 23.581 54.02C23.3456 51.6346 23.1819 49.2409 22.9731 46.8534C22.4942 46.7034 21.9865 46.718 21.4912 46.7096C19.0883 46.7242 16.6833 46.7013 14.2784 46.7388C14.5137 51.3284 14.919 55.9117 15.6088 60.4575C17.9789 61.0867 20.3532 61.7034 22.7193 62.3596C26.3442 63.3638 30.014 64.1992 33.645 65.1867C34.0769 65.2805 34.5129 65.443 34.9611 65.4054C35.2026 68.4242 35.0164 71.4617 35.0614 74.4888C35.8985 74.3513 36.7213 74.1409 37.5298 73.8867C44.4029 71.9867 51.2678 70.0513 58.1368 68.1325C58.4787 65.3825 58.6383 62.6138 58.9085 59.8575C59.6228 51.4784 60.3433 43.0992 61.0924 34.7221C61.9705 25.1388 62.7298 15.5451 63.614 5.96174C54.1026 5.97008 44.5933 5.943 35.0839 5.97425Z" fill="#3B9D7D"/>
<path d="M35.0839 5.97431C44.5933 5.94306 54.1026 5.97014 63.614 5.96181C62.7298 15.5451 61.9705 25.1389 61.0924 34.7222C60.3433 43.0993 59.6228 51.4785 58.9085 59.8576C58.6383 62.6139 58.4787 65.3826 58.1369 68.1326C51.2678 70.0514 44.4029 71.9868 37.5298 73.8868C36.7214 74.141 35.8985 74.3514 35.0614 74.4889C35.0164 71.4618 35.2026 68.4243 34.9611 65.4056C35.0225 65.3931 35.1474 65.3681 35.2088 65.3556C41.6009 63.7222 47.95 61.9243 54.3278 60.2326C55.1342 51.0243 56.0287 41.8201 56.5956 32.5931C51.1716 32.6222 45.7456 32.6056 40.3216 32.6285C39.5316 32.6326 38.7415 32.6285 37.9556 32.5701C40.8743 31.041 43.9445 29.8285 46.9409 28.4639C49.8167 27.1368 52.7272 25.8931 55.6132 24.591C56.1699 24.3306 56.7635 24.1139 57.2526 23.7264C57.445 23.0076 57.4348 22.2556 57.5105 21.5201C57.6763 19.1868 57.9711 16.866 58.0816 14.5306C50.4 14.4681 42.7184 14.5222 35.0348 14.4806C35.1208 11.6472 35.0348 8.80972 35.0839 5.97431Z" fill="#4ECCA3"/>
<path d="M35.1228 41.3514C38.8316 41.2868 42.5424 41.3889 46.2533 41.3639C46.0465 45.2243 45.7313 49.0785 45.5348 52.9389C43.2609 53.6951 40.9521 54.3347 38.6597 55.0347C37.4378 55.4139 36.1831 55.7139 35.0205 56.2701C35.1699 51.2993 34.9714 46.3222 35.1228 41.3514Z" fill="#4ECCA3"/>
<path d="M11.0363 14.4826C19.0351 14.4743 27.036 14.4514 35.0348 14.4805C35.1392 23.4389 35.0082 32.3972 35.1228 41.3514C31.9441 41.4222 28.7634 41.3576 25.5848 41.3743C21.6181 41.3805 17.6535 41.4451 13.6868 41.4597C13.476 38.443 12.9971 35.4368 12.9418 32.4139C13.4433 32.043 14.043 31.8514 14.6038 31.5972C21.1433 28.6868 27.7339 25.8868 34.2447 22.9139C26.8026 22.6868 19.3503 22.9785 11.9082 22.6972C11.5357 19.968 11.1734 17.2347 11.0363 14.4826Z" fill="#CFCFCF"/>
<path d="M14.2784 46.7389C16.6833 46.7014 19.0883 46.7243 21.4912 46.7097C21.9865 46.7181 22.4941 46.7035 22.9731 46.8535C23.1819 49.241 23.3456 51.6347 23.581 54.0201C25.2368 54.5097 26.9582 54.7035 28.6386 55.0764C30.7693 55.4618 32.8816 55.9472 35.0205 56.2701C35.2251 59.2951 34.8669 62.341 35.2088 65.3556C35.1474 65.3681 35.0225 65.3931 34.9611 65.4056C34.5129 65.4431 34.0769 65.2806 33.645 65.1868C30.014 64.1993 26.3441 63.3639 22.7193 62.3597C20.3532 61.7035 17.9789 61.0868 15.6088 60.4576C14.919 55.9118 14.5137 51.3285 14.2784 46.7389Z" fill="#CFCFCF"/>
<path d="M35.0348 14.4805C42.7185 14.5222 50.4 14.468 58.0816 14.5305C57.9711 16.8659 57.6763 19.1868 57.5106 21.5201C57.4348 22.2555 57.4451 23.0076 57.2527 23.7264C56.7635 24.1139 56.1699 24.3305 55.6132 24.5909C52.7272 25.893 49.8167 27.1368 46.941 28.4639C43.9445 29.8284 40.8743 31.0409 37.9556 32.5701C38.7416 32.6284 39.5316 32.6326 40.3217 32.6284C45.7456 32.6055 51.1717 32.6222 56.5956 32.593C56.0287 41.8201 55.1342 51.0243 54.3278 60.2326C47.95 61.9243 41.6009 63.7222 35.2088 65.3555C34.867 62.3409 35.2252 59.2951 35.0205 56.2701C36.1831 55.7138 37.4378 55.4138 38.6597 55.0347C40.9521 54.3347 43.2609 53.6951 45.5348 52.9389C45.7313 49.0784 46.0465 45.2243 46.2532 41.3639C42.5424 41.3889 38.8316 41.2868 35.1228 41.3514C35.0082 32.3972 35.1392 23.4389 35.0348 14.4805Z" fill="white"/>
</svg>
