<svg width="70" height="80" viewBox="0 0 70 80" fill="none" xmlns="http://www.w3.org/2000/svg">
<path d="M6.37332 71.9994L0 0H70L63.6189 72.0051L34.983 80L6.37332 71.9994Z" fill="#3B9D7D"/>
<path d="M35 5.88501V73.8843L58.1557 67.4197L63.6112 5.88501H35Z" fill="#4ECCA3"/>
<path d="M13.0399 14.7166L15.4033 41.4207H45.7935L44.7736 52.8746L34.9887 55.539L25.2223 52.8785L24.5693 45.524H15.7681L17.0267 59.7013L34.9866 64.725L52.9692 59.7013L55.38 32.5911H23.4227L22.6203 23.548H56.1479H56.1747L56.9601 14.7166H13.0399Z" fill="white"/>
<path d="M35 14.7166H13.0399L15.4033 41.4208H35V32.5911H23.4227L22.6203 23.548H35V14.7166Z" fill="#EBEBEB"/>
<path d="M35 55.5352L34.9887 55.5391L25.2223 52.8786L24.5693 45.5241H15.7681L17.0266 59.7013L34.9866 64.725L35 64.7212V55.5352Z" fill="#EBEBEB"/>
</svg>
