<svg width="80" height="80" viewBox="0 0 80 80" fill="none" xmlns="http://www.w3.org/2000/svg">
<path d="M0.294128 79.7059V0.294128H79.7059V79.7059H0.294128Z" fill="#4ECCA3"/>
<path d="M52.2162 59.736C53.7427 62.2155 55.4015 64.5912 58.9155 64.5912C61.8669 64.5912 63.4155 63.1243 63.4155 61.0949C63.4155 58.6662 61.814 57.8037 58.5669 56.3897L56.7868 55.6309C51.6493 53.4515 48.2324 50.7206 48.2324 44.9522C48.2324 39.6361 52.3022 35.5905 58.6618 35.5905C63.1904 35.5905 66.4441 37.1588 68.7912 41.2662L63.2456 44.811C62.0257 42.6316 60.7066 41.7736 58.6618 41.7736C56.575 41.7736 55.2537 43.0905 55.2537 44.811C55.2537 46.9375 56.5772 47.7978 59.6324 49.1147L61.4125 49.8735C67.4677 52.4522 70.8824 55.086 70.8824 61.0066C70.8824 67.386 65.8441 70.8824 59.0809 70.8824C52.4655 70.8824 48.7088 67.5625 46.6177 63.453L52.2162 59.736ZM26.6589 59.9169C27.775 61.9155 29.4714 63.453 31.9111 63.453C34.2449 63.453 35.5883 62.5309 35.5883 58.9463V35.5883H42.9405V60.0758C42.9405 67.503 38.6324 70.8824 32.3412 70.8824C26.6566 70.8824 22.5537 67.0309 20.8817 63.453L26.6589 59.9169Z" fill="white"/>
</svg>
